# xmcd
#
# Track frame offsets:
#	150
#	13868
#	31438
#	46945
#	64848
#	82278
#	102415
#	116164
#	134583
#	149966
#	168428
#	185180
#	200379
#	215510
#	231201
#	249310
#	267402
#
# Disc length: 3795 seconds
#
# Revision: 1
# Processed by: cddbd v1.5.1PL0 Copyright (c) Steve Scherf et al.
# Submitted via: audiograbber 1.83.01
#
DISCID=120ed111
DTITLE=Various Artist - RC58
DYEAR=2000
DGENRE=Country
TTITLE0=Garth Brooks - Do What You Gotta Do
TTITLE1=Clint Black ft. Steve Wariner - Been There
TTITLE2=George Strait - The Best Day
TTITLE3=Trisha Yearwood - Real Live Woman
TTITLE4=Phil Vassar - Carlene
TTITLE5=Martina McBride - Love's The Only House
TTITLE6=Tracy Lawrence - Lessons Learned
TTITLE7=Jessica Andrews - Unbreakable Heart
TTITLE8=Andy Griggs - She's More
TTITLE9=Shania Twain - Rock This Country
TTITLE10=Montgomery Gentry - Daddy Won't Sell The Farm
TTITLE11=Toby Keith - How Do You Like Me Now
TTITLE12=Wynonna - Can't Nobody Love You (Like I Do)
TTITLE13=Steve Holy - Don't Make Me Beg
TTITLE14=Chad Brock ft. Hank Williams Jr. - A Country Boy Can Survive (Y2K Vers
TTITLE14=ion)
TTITLE15=Alabama - Small Stuff
TTITLE16=Kenny Rogers - Buy Me Love
EXTD=
EXTT0=
EXTT1=
EXTT2=
EXTT3=
EXTT4=
EXTT5=
EXTT6=
EXTT7=
EXTT8=
EXTT9=
EXTT10=
EXTT11=
EXTT12=
EXTT13=
EXTT14=
EXTT15=
EXTT16=
PLAYORDER=
